<svg width="674" height="502" viewBox="0 0 674 502" fill="none" xmlns="http://www.w3.org/2000/svg">
<path d="M673.231 440.832H0V441.169H673.231V440.832Z" fill="#E0E0E0"/>
<path d="M624.22 453.65H579.625V453.987H624.22V453.65Z" fill="#E0E0E0"/>
<path d="M392.804 460.49H366.965V460.827H392.804V460.49Z" fill="#E0E0E0"/>
<path d="M612.519 470.979H586.681V471.316H612.519V470.979Z" fill="#E0E0E0"/>
<path d="M80.0203 464.099H46.3048V464.435H80.0203V464.099Z" fill="#E0E0E0"/>
<path d="M100.527 464.099H92.0038V464.435H100.527V464.099Z" fill="#E0E0E0"/>
<path d="M245.622 454.606H119.485V454.943H245.622V454.606Z" fill="#E0E0E0"/>
<path d="M319.112 380.78H59.1232C57.0864 380.776 55.1343 379.964 53.6954 378.523C52.2565 377.082 51.4483 375.128 51.4483 373.091V7.62098C51.4661 5.59593 52.2821 3.65966 53.7191 2.23273C55.1561 0.805801 57.0981 0.00346901 59.1232 0H319.112C321.151 0 323.106 0.810015 324.548 2.25185C325.99 3.69369 326.8 5.64923 326.8 7.6883V373.091C326.8 375.13 325.99 377.086 324.548 378.528C323.106 379.97 321.151 380.78 319.112 380.78ZM59.1232 0.269293C57.1757 0.27286 55.3092 1.04898 53.9334 2.4273C52.5576 3.80563 51.7849 5.67352 51.7849 7.62098V373.091C51.7849 375.039 52.5576 376.907 53.9334 378.285C55.3092 379.663 57.1757 380.439 59.1232 380.443H319.112C321.06 380.439 322.928 379.664 324.306 378.286C325.684 376.908 326.46 375.04 326.463 373.091V7.62098C326.46 5.67228 325.684 3.80442 324.306 2.42648C322.928 1.04854 321.06 0.272853 319.112 0.269293H59.1232Z" fill="#E0E0E0"/>
<path d="M610.365 380.78H350.363C348.325 380.776 346.372 379.965 344.931 378.524C343.49 377.083 342.678 375.129 342.675 373.091V7.62098C342.696 5.5947 343.515 3.65844 344.954 2.23189C346.393 0.805331 348.337 0.00343118 350.363 0H610.365C612.388 0.00700766 614.326 0.810906 615.76 2.23745C617.195 3.664 618.009 5.59826 618.026 7.62098V373.091C618.026 375.126 617.22 377.077 615.784 378.518C614.348 379.959 612.399 380.772 610.365 380.78ZM350.363 0.269293C348.414 0.272853 346.547 1.04854 345.169 2.42648C343.791 3.80442 343.015 5.67228 343.011 7.62098V373.091C343.015 375.04 343.791 376.908 345.169 378.286C346.547 379.664 348.414 380.439 350.363 380.443H610.365C612.314 380.439 614.182 379.664 615.559 378.286C616.937 376.908 617.713 375.04 617.717 373.091V7.62098C617.713 5.67228 616.937 3.80442 615.559 2.42648C614.182 1.04854 612.314 0.272853 610.365 0.269293H350.363Z" fill="#E0E0E0"/>
<path d="M574.697 34.2136H95.8547C90.2626 34.2136 85.7293 38.7469 85.7293 44.339V404.599C85.7293 410.191 90.2626 414.724 95.8547 414.724H574.697C580.289 414.724 584.823 410.191 584.823 404.599V44.339C584.823 38.7469 580.289 34.2136 574.697 34.2136Z" fill="#E0E0E0"/>
<path d="M577.39 34.2136H98.5476C92.9555 34.2136 88.4222 38.7469 88.4222 44.339V404.599C88.4222 410.191 92.9555 414.724 98.5476 414.724H577.39C582.982 414.724 587.515 410.191 587.515 404.599V44.339C587.515 38.7469 582.982 34.2136 577.39 34.2136Z" fill="#EBEBEB"/>
<path d="M88.4222 60.4021V404.598C88.4329 407.279 89.5035 409.847 91.4005 411.742C93.2974 413.636 95.8667 414.703 98.5476 414.71H577.377C580.06 414.703 582.631 413.634 584.529 411.737C586.426 409.839 587.495 407.268 587.502 404.585V60.4021H88.4222Z" fill="#EBEBEB"/>
<path d="M585.644 73.8669H90.2938V401.259H585.644V73.8669Z" fill="#FAFAFA"/>
<path d="M567.763 370.695H108.161C108.139 370.695 108.117 370.69 108.096 370.681C108.076 370.672 108.057 370.659 108.042 370.643C108.027 370.626 108.015 370.607 108.008 370.586C108.001 370.564 107.998 370.542 108 370.52V104.593C108 104.55 108.017 104.509 108.047 104.479C108.077 104.449 108.118 104.432 108.161 104.432H401.865C401.908 104.432 401.949 104.449 401.979 104.479C402.01 104.509 402.027 104.55 402.027 104.593C402.029 104.616 402.026 104.638 402.019 104.659C402.011 104.68 402 104.7 401.984 104.716C401.969 104.733 401.951 104.746 401.93 104.755C401.91 104.764 401.888 104.768 401.865 104.768H108.336V370.358H567.588V104.768H510.794C510.772 104.768 510.749 104.764 510.729 104.755C510.708 104.746 510.69 104.733 510.675 104.716C510.66 104.7 510.648 104.68 510.641 104.659C510.633 104.638 510.631 104.616 510.632 104.593C510.632 104.55 510.649 104.509 510.68 104.479C510.71 104.449 510.751 104.432 510.794 104.432H567.763C567.806 104.432 567.847 104.449 567.877 104.479C567.907 104.509 567.924 104.55 567.924 104.593V370.52C567.926 370.542 567.923 370.564 567.916 370.586C567.909 370.607 567.897 370.626 567.882 370.643C567.867 370.659 567.848 370.672 567.828 370.681C567.807 370.69 567.785 370.695 567.763 370.695Z" fill="#E0E0E0"/>
<path d="M110.639 52.7678C113.613 52.7678 116.025 50.3565 116.025 47.3819C116.025 44.4074 113.613 41.9961 110.639 41.9961C107.664 41.9961 105.253 44.4074 105.253 47.3819C105.253 50.3565 107.664 52.7678 110.639 52.7678Z" fill="#FAFAFA"/>
<path d="M129.718 52.7678C132.693 52.7678 135.104 50.3565 135.104 47.3819C135.104 44.4074 132.693 41.9961 129.718 41.9961C126.744 41.9961 124.332 44.4074 124.332 47.3819C124.332 50.3565 126.744 52.7678 129.718 52.7678Z" fill="#FAFAFA"/>
<path d="M148.798 52.7678C151.772 52.7678 154.183 50.3565 154.183 47.3819C154.183 44.4074 151.772 41.9961 148.798 41.9961C145.823 41.9961 143.412 44.4074 143.412 47.3819C143.412 50.3565 145.823 52.7678 148.798 52.7678Z" fill="#FAFAFA"/>
<path d="M587.515 59.729H88.4222V61.0755H587.515V59.729Z" fill="#E0E0E0"/>
<path d="M241.313 92.3809H132.398V250.146H241.313V92.3809Z" fill="#E0E0E0"/>
<path d="M510.794 250.321H401.865C401.843 250.321 401.821 250.316 401.8 250.307C401.78 250.298 401.761 250.285 401.746 250.269C401.731 250.252 401.719 250.233 401.712 250.212C401.705 250.19 401.702 250.168 401.704 250.146V92.3806C401.704 92.3377 401.721 92.2966 401.751 92.2663C401.781 92.236 401.822 92.219 401.865 92.219H510.794C510.837 92.219 510.878 92.236 510.908 92.2663C510.939 92.2966 510.956 92.3377 510.956 92.3806V250.146C510.956 250.19 510.939 250.232 510.909 250.265C510.879 250.297 510.838 250.317 510.794 250.321ZM402.04 249.984H510.619V92.5556H402.04V249.984Z" fill="#E0E0E0"/>
<path d="M248.059 92.3809H135.548V250.146H248.059V92.3809Z" fill="#EBEBEB"/>
<path d="M238.62 240.721V101.806H144.96V240.721H238.62Z" fill="#FAFAFA"/>
<path d="M238.62 240.721V101.806H237.274V240.721H238.62Z" fill="#E0E0E0"/>
<path d="M220.162 175.857C222.687 160.198 212.04 145.457 196.38 142.932C180.721 140.407 165.979 151.054 163.454 166.713C160.929 182.373 171.577 197.114 187.236 199.639C202.896 202.164 217.637 191.517 220.162 175.857Z" fill="#EBEBEB"/>
<path d="M241.313 269.238H132.398V401.259H241.313V269.238Z" fill="#E0E0E0"/>
<path d="M248.059 269.238H135.548V401.259H248.059V269.238Z" fill="#EBEBEB"/>
<path d="M238.62 401.259V278.664H144.96V401.259H238.62Z" fill="#E6E6E6"/>
<path d="M238.634 401.259V278.664H237.287V401.259H238.634Z" fill="#E0E0E0"/>
<path d="M218.275 321.643H165.332V374.585H218.275V321.643Z" fill="#FAFAFA"/>
<path d="M376.054 180.426H267.138V338.191H376.054V180.426Z" fill="#E0E0E0"/>
<path d="M382.786 180.426H270.275V338.191H382.786V180.426Z" fill="#EBEBEB"/>
<path d="M373.361 328.766V189.851H279.701V328.766H373.361Z" fill="#FAFAFA"/>
<path d="M373.361 328.766V189.851H372.014V328.766H373.361Z" fill="#E0E0E0"/>
<path d="M326.652 228.145L297.918 277.896H355.372L326.652 228.145Z" fill="#E6E6E6"/>
<path d="M619.171 423.893C588.202 430.625 553.45 374.41 611.388 318.425C622.214 375.77 673.231 412.125 619.171 423.893Z" fill="#E0E0E0"/>
<path d="M566.861 376.458C559.415 367.396 550.609 357.203 552.75 346.418C554.891 335.633 560.209 327.567 555.968 316.136C550.892 302.362 551.928 285.935 560.465 287.308C569.002 288.682 578.683 298.753 578.427 312.097C578.265 325.009 586.708 329.129 594.652 336.01C602.596 342.89 605.652 352.908 607.08 362.818C609.584 378.45 629.821 375.488 635.207 389.074C640.741 402.175 629.673 419.652 611.954 423.664C594.234 427.677 581.672 430.181 569.554 416.353C557.274 401.663 577.902 389.451 566.861 376.458Z" fill="#EBEBEB"/>
<path d="M607.255 363.1C607.329 363.053 607.382 362.979 607.402 362.893C607.422 362.808 607.408 362.718 607.362 362.643C607.313 362.568 607.236 362.514 607.148 362.494C607.061 362.474 606.968 362.489 606.891 362.535C600.353 367.242 595.707 374.126 593.79 381.951C591.555 374.411 589.104 366.736 586.573 359.196C586.585 359.156 586.585 359.114 586.573 359.075C584.176 351.925 581.712 344.91 579.302 338.218C579.423 332.67 584.149 327.015 584.19 326.948C584.222 326.918 584.248 326.881 584.265 326.841C584.283 326.8 584.292 326.756 584.292 326.712C584.292 326.668 584.283 326.624 584.265 326.584C584.248 326.543 584.222 326.507 584.19 326.477C584.127 326.415 584.042 326.38 583.954 326.38C583.866 326.38 583.781 326.415 583.718 326.477C581.277 329.435 579.591 332.942 578.804 336.696C577.754 333.788 576.703 330.933 575.667 328.173C575.572 324.565 579.477 318.627 579.517 318.573C579.543 318.536 579.56 318.494 579.569 318.45C579.578 318.407 579.578 318.361 579.569 318.318C579.561 318.274 579.543 318.232 579.518 318.195C579.493 318.158 579.461 318.126 579.423 318.102C579.35 318.055 579.261 318.039 579.175 318.056C579.09 318.074 579.015 318.124 578.965 318.196C577.223 320.806 575.922 323.686 575.115 326.719C572.314 319.206 569.661 312.352 567.372 306.522C567.372 306.522 567.372 306.522 567.372 306.455C562.781 294.794 559.63 287.308 559.523 287.052C559.505 287.011 559.48 286.975 559.448 286.944C559.416 286.913 559.378 286.889 559.337 286.872C559.295 286.856 559.251 286.848 559.207 286.849C559.163 286.85 559.119 286.859 559.078 286.877C559.037 286.892 558.999 286.915 558.967 286.945C558.935 286.976 558.91 287.012 558.893 287.053C558.877 287.094 558.869 287.138 558.871 287.182C558.872 287.226 558.883 287.269 558.903 287.308C559.011 287.564 562.027 294.741 566.47 305.984C557.907 302.402 553.329 302.954 553.127 302.981C553.083 302.986 553.04 303 553.002 303.021C552.964 303.043 552.93 303.073 552.904 303.108C552.877 303.144 552.858 303.184 552.848 303.227C552.838 303.27 552.836 303.314 552.844 303.358C552.849 303.402 552.863 303.445 552.885 303.484C552.906 303.523 552.936 303.557 552.971 303.585C553.006 303.612 553.046 303.633 553.089 303.645C553.132 303.657 553.177 303.66 553.221 303.654C553.221 303.654 558.055 303.062 566.807 306.859C572.018 320.094 579.073 338.676 585.657 358.213C576.065 351.138 564.425 347.389 552.507 347.535C552.463 347.539 552.42 347.551 552.38 347.571C552.341 347.591 552.306 347.619 552.277 347.653C552.248 347.686 552.226 347.726 552.213 347.768C552.199 347.81 552.194 347.855 552.198 347.899C552.199 347.944 552.21 347.988 552.23 348.028C552.249 348.069 552.277 348.105 552.311 348.134C552.345 348.163 552.385 348.185 552.428 348.198C552.471 348.211 552.517 348.214 552.561 348.209C564.642 348.07 576.421 351.981 586.021 359.317C590.976 374.128 595.621 389.33 598.987 403.198C587.489 392.83 569.123 392.13 568.934 392.117C568.844 392.117 568.757 392.152 568.691 392.214C568.626 392.277 568.588 392.363 568.584 392.453C568.582 392.497 568.589 392.54 568.605 392.581C568.62 392.622 568.644 392.659 568.674 392.691C568.704 392.722 568.74 392.747 568.781 392.764C568.821 392.781 568.864 392.79 568.907 392.79C569.096 392.79 588.027 393.517 599.27 404.383C601.061 411.842 602.461 418.898 603.309 425.226C603.316 425.307 603.353 425.383 603.413 425.438C603.473 425.492 603.551 425.523 603.633 425.522C603.677 425.518 603.719 425.504 603.757 425.482C603.796 425.46 603.829 425.43 603.856 425.395C603.882 425.36 603.901 425.319 603.911 425.276C603.922 425.234 603.923 425.189 603.915 425.145C603.054 418.804 601.653 411.681 599.876 404.235C598.274 397.503 596.362 390.447 594.248 383.257C595.88 375.136 600.527 367.934 607.255 363.1Z" fill="#E0E0E0"/>
<path d="M618.592 421.268H585.267V424.566H587.3L589.118 453.825H614.741L616.559 424.566H618.592V421.268Z" fill="#E0E0E0"/>
<path d="M336.616 501.638C480.798 501.638 597.681 494.814 597.681 486.396C597.681 477.978 480.798 471.154 336.616 471.154C192.433 471.154 75.55 477.978 75.55 486.396C75.55 494.814 192.433 501.638 336.616 501.638Z" fill="#F5F5F5"/>
<path d="M536.296 487.608C536.296 489.062 510.942 490.233 479.664 490.233C448.385 490.233 423.018 489.062 423.018 487.608C423.018 486.153 448.385 484.995 479.664 484.995C510.942 484.995 536.296 486.167 536.296 487.608Z" fill="#F5F5F5"/>
<path d="M537.198 242.268L534.992 267.377L536.374 267.499L538.579 242.389L537.198 242.268Z" fill="#263238"/>
<path d="M543.488 197.243L540.274 232.951L541.661 233.076L544.875 197.367L543.488 197.243Z" fill="#263238"/>
<path d="M441.882 103.624H425.105V105.01H441.882V103.624Z" fill="#263238"/>
<path d="M399.24 295.831H527.652L544.065 109.844H415.666L399.24 295.831Z" fill="#263238"/>
<path d="M436.348 487.608H430.518L473.834 202.629H479.664L436.348 487.608Z" fill="#263238"/>
<path d="M522.98 487.608H528.796L485.481 202.629H479.664L522.98 487.608Z" fill="#263238"/>
<path d="M391.309 298.376H523.935L540.362 112.375H407.722L391.309 298.376Z" fill="#407BFF"/>
<path opacity="0.8" d="M391.309 298.376H523.935L540.362 112.375H407.722L391.309 298.376Z" fill="#FAFAFA"/>
<path d="M513.81 287.254L528.271 123.484H417.861L403.4 287.254H513.81Z" fill="#407BFF"/>
<mask id="mask0_4_921" style="mask-type:luminance" maskUnits="userSpaceOnUse" x="403" y="123" width="126" height="165">
<path d="M513.81 287.254L528.271 123.484H417.861L403.4 287.254H513.81Z" fill="white"/>
</mask>
<g mask="url(#mask0_4_921)">
<path d="M550.703 196.435C523.02 179.981 512.787 198.939 492.078 210.021C474.359 219.513 436.873 192.369 416.959 226.771C397.045 261.173 454.889 343.778 531.058 307.653C572.327 288.048 595.823 223.27 550.703 196.435Z" fill="#407BFF"/>
<path opacity="0.1" d="M550.703 196.435C523.02 179.981 512.787 198.939 492.078 210.021C474.359 219.513 436.873 192.369 416.959 226.771C397.045 261.173 454.889 343.778 531.058 307.653C572.327 288.048 595.823 223.27 550.703 196.435Z" fill="black"/>
<path d="M489.237 187.844C505.395 192.746 508.209 181.826 517.365 173.599C525.201 166.557 547.66 175.686 553.517 155.691C559.374 135.696 519.586 100.877 485.332 128.762C466.751 143.923 462.887 179.82 489.237 187.844Z" fill="#407BFF"/>
<path opacity="0.1" d="M489.237 187.844C505.395 192.746 508.209 181.826 517.365 173.599C525.201 166.557 547.66 175.686 553.517 155.691C559.374 135.696 519.586 100.877 485.332 128.762C466.751 143.923 462.887 179.82 489.237 187.844Z" fill="black"/>
</g>
<path d="M426.923 127.779C426.375 127.79 425.831 127.682 425.328 127.462C424.826 127.243 424.377 126.917 424.012 126.508C423.648 126.099 423.376 125.615 423.216 125.091C423.056 124.566 423.011 124.014 423.085 123.47C423.236 122.307 423.798 121.235 424.67 120.45C425.542 119.665 426.666 119.217 427.838 119.189C428.382 119.179 428.922 119.286 429.421 119.502C429.92 119.718 430.368 120.038 430.733 120.441C431.097 120.858 431.369 121.347 431.531 121.875C431.694 122.404 431.743 122.961 431.676 123.511C431.522 124.672 430.959 125.74 430.087 126.522C429.216 127.305 428.094 127.751 426.923 127.779ZM427.838 119.539C426.749 119.562 425.703 119.976 424.893 120.705C424.082 121.434 423.56 122.429 423.422 123.511C423.36 124.01 423.404 124.517 423.553 124.997C423.701 125.478 423.95 125.921 424.284 126.298C424.625 126.669 425.042 126.962 425.507 127.158C425.971 127.353 426.473 127.445 426.977 127.429C428.063 127.405 429.105 126.993 429.913 126.267C430.721 125.54 431.241 124.548 431.38 123.47C431.446 122.972 431.404 122.465 431.258 121.985C431.112 121.504 430.864 121.06 430.531 120.683C430.193 120.308 429.776 120.011 429.311 119.814C428.846 119.616 428.344 119.522 427.838 119.539Z" fill="#FAFAFA"/>
<path d="M439.054 127.779C438.509 127.789 437.967 127.683 437.465 127.467C436.964 127.251 436.514 126.93 436.146 126.527C435.783 126.112 435.511 125.626 435.349 125.099C435.186 124.572 435.137 124.017 435.204 123.47C435.357 122.308 435.92 121.238 436.791 120.453C437.662 119.669 438.785 119.22 439.957 119.189C440.506 119.177 441.051 119.286 441.555 119.506C442.058 119.726 442.508 120.053 442.873 120.464C443.238 120.875 443.509 121.36 443.668 121.886C443.827 122.412 443.87 122.966 443.794 123.511C443.646 124.672 443.086 125.741 442.216 126.524C441.347 127.308 440.225 127.753 439.054 127.779ZM439.957 119.539C438.869 119.565 437.827 119.98 437.019 120.709C436.212 121.438 435.692 122.432 435.554 123.511C435.483 124.006 435.521 124.511 435.666 124.99C435.811 125.47 436.059 125.911 436.392 126.285C436.726 126.658 437.137 126.954 437.597 127.151C438.057 127.349 438.554 127.444 439.054 127.429C440.14 127.403 441.18 126.989 441.988 126.263C442.795 125.538 443.316 124.547 443.457 123.47C443.52 122.972 443.477 122.466 443.331 121.986C443.185 121.506 442.939 121.062 442.609 120.683C442.274 120.314 441.865 120.021 441.407 119.823C440.949 119.626 440.455 119.529 439.957 119.539Z" fill="#FAFAFA"/>
<path d="M466.522 171.512C447.82 171.512 431.312 186.674 429.67 205.376C429.197 209.94 429.744 214.552 431.271 218.878C432.799 223.205 435.269 227.138 438.502 230.393L488.55 180.345C485.64 177.497 482.196 175.251 478.416 173.735C474.636 172.219 470.594 171.464 466.522 171.512Z" fill="#FAFAFA"/>
<path d="M495.727 178.339C498.724 181.519 501.003 185.306 502.411 189.443C503.818 193.58 504.322 197.971 503.887 202.319C502.231 220.645 486.073 235.55 467.721 235.55C459.914 235.635 452.374 232.713 446.662 227.391L495.727 178.339ZM495.727 177.356L445.679 227.404C448.591 230.254 452.037 232.501 455.82 234.017C459.602 235.533 463.646 236.287 467.721 236.237C486.423 236.237 502.917 221.076 504.573 202.373C505.045 197.808 504.495 193.196 502.965 188.869C501.436 184.542 498.963 180.61 495.727 177.356Z" fill="#407BFF"/>
<path opacity="0.2" d="M495.727 178.339C498.724 181.519 501.003 185.306 502.411 189.443C503.818 193.58 504.322 197.971 503.887 202.319C502.231 220.645 486.073 235.55 467.721 235.55C459.914 235.635 452.374 232.713 446.662 227.391L495.727 178.339ZM495.727 177.356L445.679 227.404C448.591 230.254 452.037 232.501 455.82 234.017C459.602 235.533 463.646 236.287 467.721 236.237C486.423 236.237 502.917 221.076 504.573 202.373C505.045 197.808 504.495 193.196 502.965 188.869C501.436 184.542 498.963 180.61 495.727 177.356Z" fill="black"/>
<path d="M404.976 287.254L419.45 123.484H417.861L403.4 287.254H404.976Z" fill="#263238"/>
<path d="M392.871 297.191L393.383 298.376H523.936L524.043 297.191H392.871Z" fill="#407BFF"/>
<path opacity="0.1" d="M392.871 297.191L393.383 298.376H523.936L524.043 297.191H392.871Z" fill="#FAFAFA"/>
<path d="M381.83 294.538L382.328 298.376H514.968L514.456 294.538H381.83Z" fill="#407BFF"/>
<path opacity="0.3" d="M381.83 294.538L382.328 298.376H514.968L514.456 294.538H381.83Z" fill="#FAFAFA"/>
<path d="M284.696 487.608C284.696 489.062 259.342 490.234 228.064 490.234C196.786 490.234 171.418 489.062 171.418 487.608C171.418 486.154 196.786 484.996 228.064 484.996C259.342 484.996 284.696 486.167 284.696 487.608Z" fill="#F5F5F5"/>
<path d="M243.871 477.28H253.997L255.007 453.838H244.881L243.871 477.28Z" fill="#E58A7B"/>
<path d="M183.105 477.28H193.217L198.307 453.838H188.182L183.105 477.28Z" fill="#E58A7B"/>
<path d="M193.891 476.109H182.513C182.313 476.11 182.119 476.178 181.963 476.303C181.807 476.427 181.697 476.601 181.651 476.796L179.659 485.79C179.609 486.01 179.611 486.237 179.663 486.456C179.715 486.675 179.816 486.879 179.959 487.053C180.102 487.227 180.282 487.366 180.487 487.46C180.691 487.554 180.915 487.6 181.14 487.594C185.179 487.527 187.037 487.298 192.033 487.298C195.116 487.298 201.458 487.608 205.699 487.608C209.94 487.608 210.506 483.407 208.769 483.03C200.96 481.333 197.997 478.99 195.533 476.728C195.08 476.327 194.496 476.107 193.891 476.109Z" fill="#263238"/>
<path d="M253.929 476.109H242.875C242.674 476.107 242.479 476.175 242.322 476.3C242.166 476.425 242.056 476.6 242.013 476.796L240.02 485.79C239.969 486.008 239.968 486.234 240.018 486.452C240.067 486.67 240.166 486.874 240.306 487.048C240.447 487.222 240.625 487.362 240.827 487.456C241.03 487.551 241.251 487.598 241.475 487.594C245.514 487.527 251.223 487.298 256.286 487.298C262.143 487.298 267.206 487.608 274.073 487.608C278.233 487.608 279.458 483.407 277.654 483.03C269.723 481.306 263.26 481.118 256.42 476.89C255.681 476.398 254.817 476.127 253.929 476.109Z" fill="#263238"/>
<path d="M261.389 146.536L275.028 141.15C275.028 141.15 290.755 173.25 295.697 174.811C302.429 177.02 316.257 183.146 324.619 184.237C325.669 185.583 327.312 189.757 327.029 191.279C315.503 195.049 290.957 190.053 285.868 186.095C274.274 177.168 261.389 146.536 261.389 146.536Z" fill="#E58A7B"/>
<path d="M257.7 139.251C254.293 148.299 271.568 174.973 271.568 174.973L291.765 163.985C288.721 155.692 284.798 147.747 280.064 140.288C272.955 129.61 261.443 129.26 257.7 139.251Z" fill="#407BFF"/>
<path d="M257.403 140.396C261.443 138.511 265.819 140.086 270.289 147.572C274.759 155.059 278.368 167.554 278.677 171.122L271.568 175.04C271.568 175.04 255.612 150.346 257.403 140.396Z" fill="#407BFF"/>
<path opacity="0.2" d="M257.403 140.396C261.443 138.511 265.819 140.086 270.289 147.572C274.759 155.059 278.368 167.554 278.677 171.122L271.568 175.04C271.568 175.04 255.612 150.346 257.403 140.396Z" fill="black"/>
<path d="M267.946 174.071C267.822 174.071 267.699 174.037 267.593 173.973C267.486 173.909 267.399 173.817 267.34 173.707C267.295 173.629 267.267 173.542 267.256 173.453C267.245 173.363 267.253 173.272 267.278 173.185C267.303 173.099 267.345 173.018 267.402 172.948C267.459 172.878 267.53 172.82 267.609 172.778L287.806 161.777C287.967 161.692 288.155 161.673 288.329 161.726C288.504 161.779 288.65 161.899 288.735 162.06C288.78 162.138 288.809 162.225 288.819 162.315C288.83 162.404 288.823 162.495 288.798 162.582C288.772 162.668 288.73 162.749 288.673 162.819C288.616 162.889 288.546 162.947 288.466 162.989L268.269 173.99C268.17 174.043 268.059 174.071 267.946 174.071Z" fill="#FAFAFA"/>
<path d="M322.909 184.223L334.327 179.537L338.191 191.871C333.626 192.565 328.982 192.565 324.417 191.871L322.909 184.223Z" fill="#E58A7B"/>
<path d="M342.621 179.241L342.432 187.441L338.191 191.871L334.327 179.537L342.621 179.241Z" fill="#E58A7B"/>
<path d="M255.007 453.838L254.481 465.93H244.356L244.881 453.838H255.007Z" fill="#CF6F64"/>
<path d="M188.182 453.838H198.307L195.681 465.93H185.556L188.182 453.838Z" fill="#CF6F64"/>
<path d="M269.723 132.317C269.723 132.317 281.666 162.882 270.316 219.837H216.188C215.811 211.529 221.035 170.987 213.01 131.832C218.995 130.675 225.049 129.91 231.134 129.543C238.802 129.099 246.49 129.099 254.158 129.543C259.411 130.062 264.615 130.99 269.723 132.317Z" fill="#407BFF"/>
<path d="M254.481 172.737C249.23 172.737 244.666 167.446 244.262 160.808C244.109 159.064 244.305 157.308 244.839 155.641C245.373 153.974 246.234 152.43 247.372 151.1C248.113 150.255 249.018 149.568 250.031 149.082C251.045 148.596 252.147 148.321 253.27 148.272C258.575 148.138 263.301 153.47 263.705 160.202C263.857 161.942 263.662 163.696 263.131 165.36C262.599 167.025 261.741 168.567 260.608 169.896C259.868 170.743 258.964 171.431 257.95 171.917C256.936 172.403 255.834 172.678 254.71 172.724L254.481 172.737ZM253.499 149.646H253.31C252.372 149.682 251.451 149.91 250.606 150.318C249.76 150.726 249.008 151.304 248.395 152.015C247.394 153.216 246.641 154.602 246.179 156.095C245.717 157.588 245.555 159.158 245.702 160.714C246.066 166.705 250.119 171.485 254.724 171.337C255.663 171.298 256.583 171.066 257.429 170.656C258.274 170.246 259.026 169.667 259.638 168.954C260.64 167.757 261.393 166.372 261.855 164.882C262.318 163.391 262.479 161.823 262.331 160.269C262.022 154.372 258.09 149.646 253.552 149.646H253.499Z" fill="#FAFAFA"/>
<path d="M224.778 141.473C225.681 147.909 223.647 163.326 217.508 181.153C217.609 165.92 216.356 150.708 213.764 135.697V135.616C217.332 135.253 223.917 135.428 224.778 141.473Z" fill="#407BFF"/>
<path opacity="0.2" d="M224.778 141.473C225.681 147.909 223.647 163.326 217.508 181.153C217.609 165.92 216.356 150.708 213.764 135.697V135.616C217.332 135.253 223.917 135.428 224.778 141.473Z" fill="black"/>
<path d="M257.646 129.907C256.515 129.759 255.343 129.624 254.158 129.503C246.49 129.065 238.802 129.065 231.134 129.503L228.239 129.705L228.576 130.526C228.724 130.903 232.413 139.79 247.87 139.79C249.904 139.79 256.043 139.79 257.982 135.643C258.359 134.722 258.525 133.729 258.467 132.736C258.408 131.743 258.128 130.776 257.646 129.907Z" fill="#FAFAFA"/>
<path d="M233.423 103.597C234.877 111.002 236.318 124.575 231.134 129.516C231.134 129.516 234.109 137.029 247.87 137.029C260.446 137.029 254.158 129.516 254.158 129.516C245.891 127.537 246.08 121.437 247.547 115.661L233.423 103.597Z" fill="#E58A7B"/>
<path d="M239.186 108.525L247.547 115.661C247.189 116.984 246.95 118.335 246.834 119.701C244.141 122.259 239.347 115.782 239.011 112.483C238.826 111.164 238.885 109.823 239.186 108.525Z" fill="#CF6F64"/>
<path d="M256.959 80.7877C261.941 82.9016 264.647 96.8644 258.305 100.082C251.964 103.301 247.52 76.8291 256.959 80.7877Z" fill="#263238"/>
<path d="M232.534 92.4618C233.153 102.48 233.005 108.377 238.068 113.534C245.689 121.276 258.063 116.671 260.46 106.667C262.614 97.6592 261.241 82.7808 251.425 78.7818C249.264 77.8916 246.911 77.5687 244.59 77.8439C242.27 78.119 240.058 78.983 238.165 80.3538C236.272 81.7246 234.761 83.5566 233.775 85.6758C232.79 87.795 232.362 90.131 232.534 92.4618Z" fill="#E58A7B"/>
<path d="M238.324 88.0182C240.438 96.2854 240.33 102.829 236.116 103.166C231.901 103.502 224.119 90.4687 224.375 84.5712C224.765 75.5499 231.363 82.8612 229.047 75.2268C227.606 70.4738 235.604 66.1516 241.798 67.7943C252.017 70.4872 255.087 83.9518 263.22 74.4324C267.933 68.9523 281.949 74.4324 273.022 82.7939C264.095 91.1554 271.797 91.6401 271.797 91.6401C271.797 91.6401 260.5 91.1554 264.715 84.9078C268.929 78.6602 257.013 87.2776 249.446 85.0425C242.229 82.8612 236.762 81.811 238.324 88.0182Z" fill="#263238"/>
<path d="M228.01 103.502C228.676 104.562 229.544 105.48 230.565 106.203C231.587 106.926 232.741 107.441 233.961 107.717C237.233 108.444 238.674 105.468 237.61 102.479C236.654 99.7862 233.8 96.1777 230.595 96.797C229.896 96.9438 229.245 97.2632 228.701 97.7261C228.157 98.189 227.737 98.7806 227.48 99.4471C227.223 100.114 227.137 100.834 227.23 101.542C227.322 102.25 227.59 102.924 228.01 103.502Z" fill="#E58A7B"/>
<path d="M230.245 78.9431C229.244 78.4595 228.378 77.7354 227.725 76.8355C227.072 75.9356 226.651 74.888 226.502 73.7861C226.502 73.7861 223.93 79.9799 230.245 78.9431Z" fill="#263238"/>
<path d="M270.316 219.81C270.316 219.81 271.662 295.494 270.612 326.355C269.468 358.469 258.252 463.587 258.252 463.587H241.111C241.111 463.587 240.478 360.34 239.765 328.806C238.943 294.431 234.783 219.81 234.783 219.81H270.316Z" fill="#407BFF"/>
<path opacity="0.6" d="M270.316 219.81C270.316 219.81 271.662 295.494 270.612 326.355C269.468 358.469 258.252 463.587 258.252 463.587H241.111C241.111 463.587 240.478 360.34 239.765 328.806C238.943 294.431 234.783 219.81 234.783 219.81H270.316Z" fill="black"/>
<path d="M239.791 458.538C239.724 458.538 239.172 463.735 239.172 463.735H259.584L261.039 457.77L239.791 458.538Z" fill="#407BFF"/>
<path opacity="0.1" d="M239.791 458.538C239.724 458.538 239.172 463.735 239.172 463.735H259.584L261.039 457.77L239.791 458.538Z" fill="black"/>
<path d="M246.645 239.845C246.308 277.398 244.046 300.207 239.415 318.546C238.809 300.625 237.705 276.94 236.722 257.268L246.645 239.845Z" fill="#407BFF"/>
<path opacity="0.8" d="M246.645 239.845C246.308 277.398 244.046 300.207 239.415 318.546C238.809 300.625 237.705 276.94 236.722 257.268L246.645 239.845Z" fill="black"/>
<path d="M251.115 219.81C251.115 219.81 239.63 297.164 233.328 326.18C226.421 357.916 200.407 463.627 200.407 463.627H181.867C181.867 463.627 199.021 360.475 202.952 329.062C207.234 294.956 216.188 219.85 216.188 219.85L251.115 219.81Z" fill="#407BFF"/>
<path opacity="0.6" d="M251.115 219.81C251.115 219.81 239.63 297.164 233.328 326.18C226.421 357.916 200.407 463.627 200.407 463.627H181.867C181.867 463.627 199.021 360.475 202.952 329.062C207.234 294.956 216.188 219.85 216.188 219.85L251.115 219.81Z" fill="black"/>
<path d="M181.086 458.538C181.005 458.538 180.439 463.735 180.439 463.735H201.969L203.491 457.77L181.086 458.538Z" fill="#407BFF"/>
<path opacity="0.1" d="M181.086 458.538C181.005 458.538 180.439 463.735 180.439 463.735H201.969L203.491 457.77L181.086 458.538Z" fill="black"/>
<path d="M189.34 452.64C189.318 452.637 189.298 452.63 189.279 452.618C189.261 452.607 189.245 452.592 189.232 452.575C189.22 452.557 189.211 452.537 189.206 452.516C189.202 452.495 189.201 452.473 189.205 452.452C189.353 451.509 204.837 358.388 208.379 330.166C212.216 299.534 220.308 231.619 220.389 230.932C220.391 230.909 220.397 230.887 220.407 230.867C220.418 230.848 220.433 230.83 220.45 230.816C220.468 230.802 220.489 230.792 220.511 230.786C220.532 230.781 220.555 230.78 220.578 230.784C220.601 230.786 220.623 230.792 220.644 230.802C220.664 230.813 220.682 230.827 220.698 230.844C220.713 230.862 220.724 230.882 220.731 230.904C220.738 230.926 220.741 230.949 220.739 230.972C220.658 231.659 212.553 299.642 208.715 330.207C205.174 358.482 189.703 451.563 189.542 452.506C189.532 452.55 189.505 452.589 189.468 452.614C189.43 452.639 189.384 452.648 189.34 452.64Z" fill="#407BFF"/>
<path opacity="0.2" d="M189.34 452.64C189.318 452.637 189.298 452.63 189.279 452.618C189.261 452.607 189.245 452.592 189.232 452.575C189.22 452.557 189.211 452.537 189.206 452.516C189.202 452.495 189.201 452.473 189.205 452.452C189.353 451.509 204.837 358.388 208.379 330.166C212.216 299.534 220.308 231.619 220.389 230.932C220.391 230.909 220.397 230.887 220.407 230.867C220.418 230.848 220.433 230.83 220.45 230.816C220.468 230.802 220.489 230.792 220.511 230.786C220.532 230.781 220.555 230.78 220.578 230.784C220.601 230.786 220.623 230.792 220.644 230.802C220.664 230.813 220.682 230.827 220.698 230.844C220.713 230.862 220.724 230.882 220.731 230.904C220.738 230.926 220.741 230.949 220.739 230.972C220.658 231.659 212.553 299.642 208.715 330.207C205.174 358.482 189.703 451.563 189.542 452.506C189.532 452.55 189.505 452.589 189.468 452.614C189.43 452.639 189.384 452.648 189.34 452.64Z" fill="black"/>
<path d="M334.717 183.832C324.984 190.327 314.791 196.105 304.22 201.121C298.969 203.706 293.623 206.116 288.318 208.567C283.013 211.018 277.694 213.495 272.322 215.865C261.64 220.685 250.904 225.398 240.115 230.003C229.343 234.621 218.45 239.091 207.45 243.319C205.614 244.043 203.577 244.07 201.723 243.395C199.869 242.72 198.326 241.39 197.385 239.656C196.445 237.922 196.171 235.903 196.616 233.981C197.061 232.059 198.194 230.366 199.802 229.222C209.348 222.301 219.029 215.636 228.778 209.106C238.526 202.575 248.328 196.139 258.198 189.811C263.099 186.606 268.067 183.509 273.009 180.386C277.95 177.262 282.905 174.111 287.928 171.122C297.898 164.986 308.302 159.586 319.058 154.964C322.824 153.42 327.028 153.322 330.862 154.689C334.697 156.056 337.891 158.791 339.831 162.37C341.771 165.948 342.321 170.117 341.375 174.076C340.428 178.035 338.053 181.505 334.704 183.819L334.717 183.832Z" fill="#407BFF"/>
<path opacity="0.3" d="M334.717 183.832C324.984 190.327 314.791 196.105 304.22 201.121C298.969 203.706 293.623 206.116 288.318 208.567C283.013 211.018 277.694 213.495 272.322 215.865C261.64 220.685 250.904 225.398 240.115 230.003C229.343 234.621 218.45 239.091 207.45 243.319C205.614 244.043 203.577 244.07 201.723 243.395C199.869 242.72 198.326 241.39 197.385 239.656C196.445 237.922 196.171 235.903 196.616 233.981C197.061 232.059 198.194 230.366 199.802 229.222C209.348 222.301 219.029 215.636 228.778 209.106C238.526 202.575 248.328 196.139 258.198 189.811C263.099 186.606 268.067 183.509 273.009 180.386C277.95 177.262 282.905 174.111 287.928 171.122C297.898 164.986 308.302 159.586 319.058 154.964C322.824 153.42 327.028 153.322 330.862 154.689C334.697 156.056 337.891 158.791 339.831 162.37C341.771 165.948 342.321 170.117 341.375 174.076C340.428 178.035 338.053 181.505 334.704 183.819L334.717 183.832Z" fill="black"/>
<path d="M374.626 129.651C370.587 131.818 367.328 133.528 362.091 133.528V134.121C367.477 134.121 370.762 132.384 374.909 130.176L374.626 129.651Z" fill="#407BFF"/>
<path opacity="0.3" d="M374.626 129.651C370.587 131.818 367.328 133.528 362.091 133.528V134.121C367.477 134.121 370.762 132.384 374.909 130.176L374.626 129.651Z" fill="black"/>
<path d="M354.551 132.842V133.434C355.241 133.432 355.93 133.491 356.611 133.609V133.03C355.931 132.908 355.241 132.845 354.551 132.842Z" fill="#407BFF"/>
<path opacity="0.3" d="M354.551 132.842V133.434C355.241 133.432 355.93 133.491 356.611 133.609V133.03C355.931 132.908 355.241 132.845 354.551 132.842Z" fill="black"/>
<path d="M374.317 161.023C368.433 166.409 362.293 169.25 356.557 169.25V169.843C362.441 169.843 368.675 166.934 374.721 161.454L374.317 161.023Z" fill="#407BFF"/>
<path opacity="0.3" d="M374.317 161.023C368.433 166.409 362.293 169.25 356.557 169.25V169.843C362.441 169.843 368.675 166.934 374.721 161.454L374.317 161.023Z" fill="black"/>
<path d="M379.501 129.772C372.58 133.421 366.978 136.882 354.618 134.741C343.227 132.761 333.95 150.494 343.011 161.441C351.4 171.58 363.464 168.173 373.509 159.044C378.37 154.34 382.231 148.702 384.859 142.469C383.271 143.291 381.628 144.125 379.824 144.893C374.882 147.034 375.421 138.955 379.501 129.772Z" fill="#407BFF"/>
<path opacity="0.5" d="M379.501 129.772C372.58 133.421 366.978 136.882 354.618 134.741C343.227 132.761 333.95 150.494 343.011 161.441C351.4 171.58 363.464 168.173 373.509 159.044C378.37 154.34 382.231 148.702 384.859 142.469C383.271 143.291 381.628 144.125 379.824 144.893C374.882 147.034 375.421 138.955 379.501 129.772Z" fill="#FAFAFA"/>
<path d="M384.429 127.362C382.665 128.13 381.035 128.951 379.5 129.772C375.461 138.955 374.882 147.034 379.824 144.893C381.628 144.126 383.271 143.291 384.859 142.469C388.872 133.3 389.357 125.221 384.429 127.362Z" fill="#407BFF"/>
<path opacity="0.3" d="M384.429 127.362C382.665 128.13 381.035 128.951 379.5 129.772C375.461 138.955 374.882 147.034 379.824 144.893C381.628 144.126 383.271 143.291 384.859 142.469C388.872 133.3 389.357 125.221 384.429 127.362Z" fill="black"/>
<path d="M374.128 138.592C373.643 140.234 372.539 141.284 371.651 141.083C370.762 140.881 370.425 139.292 370.91 137.649C371.395 136.006 372.499 134.956 373.388 135.158C374.276 135.36 374.613 136.962 374.128 138.592Z" fill="#407BFF"/>
<path opacity="0.3" d="M374.128 138.592C373.643 140.234 372.539 141.284 371.651 141.083C370.762 140.881 370.425 139.292 370.91 137.649C371.395 136.006 372.499 134.956 373.388 135.158C374.276 135.36 374.613 136.962 374.128 138.592Z" fill="black"/>
<path d="M247.749 95.2621C247.749 96.07 248.18 96.7298 248.719 96.7298C249.257 96.7298 249.675 96.07 249.675 95.2621C249.675 94.4542 249.244 93.781 248.719 93.781C248.193 93.781 247.749 94.4408 247.749 95.2621Z" fill="#263238"/>
<path d="M256.972 95.2621C256.972 96.07 257.403 96.7298 257.942 96.7298C258.48 96.7298 258.911 96.07 258.911 95.2621C258.911 94.4542 258.48 93.781 257.942 93.781C257.403 93.781 256.972 94.4408 256.972 95.2621Z" fill="#263238"/>
<path d="M254.037 95.6663C255.011 98.1602 256.325 100.507 257.942 102.641C257.385 103.043 256.747 103.318 256.072 103.446C255.397 103.574 254.702 103.552 254.037 103.381V95.6663Z" fill="#DF5753"/>
<path d="M251.667 105.63C251.729 105.626 251.787 105.599 251.83 105.554C251.873 105.509 251.896 105.45 251.896 105.388C251.893 105.328 251.868 105.271 251.826 105.229C251.783 105.187 251.727 105.162 251.667 105.159C250.65 105.184 249.641 104.968 248.724 104.528C247.806 104.088 247.006 103.436 246.389 102.627C246.372 102.601 246.349 102.578 246.322 102.56C246.296 102.542 246.266 102.53 246.235 102.524C246.204 102.517 246.171 102.517 246.14 102.524C246.109 102.53 246.079 102.542 246.053 102.56C246.003 102.595 245.968 102.648 245.955 102.708C245.943 102.768 245.954 102.831 245.985 102.883C246.642 103.764 247.502 104.473 248.491 104.951C249.48 105.429 250.569 105.662 251.667 105.63Z" fill="#263238"/>
<path d="M244.962 92.2866C245.037 92.2867 245.111 92.2697 245.179 92.2371C245.246 92.2045 245.306 92.157 245.352 92.0981C245.699 91.6052 246.158 91.2024 246.693 90.9237C247.227 90.6449 247.82 90.4982 248.422 90.4959C248.549 90.5033 248.673 90.461 248.769 90.378C248.864 90.2949 248.924 90.1777 248.934 90.0515C248.941 89.9251 248.899 89.8008 248.816 89.7051C248.733 89.6095 248.616 89.5502 248.49 89.5399C247.727 89.5281 246.973 89.7022 246.293 90.047C245.612 90.3919 245.026 90.8971 244.585 91.5192C244.534 91.5904 244.503 91.6743 244.495 91.7618C244.488 91.8493 244.505 91.9371 244.543 92.0159C244.582 92.0947 244.641 92.1615 244.715 92.2092C244.789 92.2569 244.874 92.2837 244.962 92.2866Z" fill="#263238"/>
<path d="M261.119 91.9903C261.186 92.0038 261.255 92.0038 261.321 91.9903C261.43 91.928 261.511 91.8258 261.546 91.7052C261.581 91.5847 261.568 91.4552 261.51 91.344C261.154 90.67 260.639 90.0924 260.011 89.6609C259.382 89.2294 258.658 88.9568 257.901 88.8665C257.838 88.861 257.775 88.8682 257.715 88.8878C257.655 88.9073 257.599 88.9387 257.551 88.9802C257.504 89.0216 257.465 89.0723 257.437 89.1291C257.409 89.1859 257.393 89.2477 257.39 89.3109C257.382 89.4373 257.425 89.5616 257.508 89.6572C257.591 89.7529 257.708 89.8122 257.834 89.8225C258.432 89.9039 259.002 90.1273 259.497 90.474C259.991 90.8207 260.395 91.2806 260.675 91.8153C260.728 91.8803 260.796 91.9307 260.874 91.9613C260.952 91.992 261.037 92.002 261.119 91.9903Z" fill="#263238"/>
<path d="M210.115 138.686L222.314 146.859C222.314 146.859 204.81 178.002 206.265 182.998C208.271 189.73 211.058 204.649 214.855 212.189C214.357 213.818 211.839 217.575 210.425 218.181C200.785 210.816 190.982 187.764 191.346 181.328C192.194 166.625 210.115 138.686 210.115 138.686Z" fill="#E58A7B"/>
<path d="M213.01 131.805C203.437 133.152 192.477 166.383 192.477 166.383L212.58 177.733C212.58 177.733 221.439 161.953 225.815 150.238C230.393 137.959 223.284 130.311 213.01 131.805Z" fill="#407BFF"/>
<path d="M212.068 174.488C211.951 174.488 211.835 174.461 211.731 174.407L192.261 163.406C192.182 163.362 192.113 163.302 192.057 163.23C192.001 163.158 191.96 163.076 191.937 162.989C191.913 162.901 191.907 162.809 191.919 162.719C191.93 162.629 191.96 162.542 192.006 162.464C192.098 162.307 192.249 162.192 192.425 162.145C192.601 162.097 192.789 162.12 192.948 162.208L212.404 173.195C212.564 173.286 212.681 173.435 212.732 173.612C212.782 173.788 212.761 173.977 212.674 174.138C212.612 174.244 212.524 174.332 212.418 174.394C212.311 174.455 212.191 174.488 212.068 174.488Z" fill="#FAFAFA"/>
<path d="M197.284 477.873C197.973 477.925 198.66 477.745 199.236 477.362C199.414 477.206 199.552 477.01 199.639 476.789C199.726 476.569 199.758 476.332 199.734 476.096C199.733 475.955 199.694 475.816 199.621 475.695C199.547 475.574 199.442 475.475 199.317 475.409C198.213 474.844 194.941 476.85 194.564 477.079C194.52 477.102 194.485 477.138 194.463 477.182C194.442 477.226 194.435 477.276 194.444 477.324C194.453 477.373 194.478 477.417 194.514 477.45C194.55 477.484 194.596 477.505 194.645 477.51C195.507 477.732 196.393 477.854 197.284 477.873ZM198.792 475.786C198.894 475.764 198.999 475.764 199.101 475.786C199.152 475.813 199.193 475.854 199.219 475.905C199.246 475.955 199.256 476.013 199.249 476.069C199.271 476.23 199.253 476.394 199.197 476.547C199.14 476.699 199.048 476.836 198.926 476.944C197.794 477.457 196.508 477.519 195.331 477.119C196.388 476.456 197.563 476.003 198.792 475.786Z" fill="#407BFF"/>
<path d="M194.698 477.523H194.806C195.856 476.944 197.89 474.736 197.674 473.605C197.64 473.427 197.544 473.266 197.404 473.151C197.264 473.035 197.088 472.972 196.907 472.972C196.724 472.951 196.539 472.968 196.363 473.021C196.187 473.074 196.024 473.163 195.883 473.282C194.712 474.238 194.537 477.16 194.456 477.321C194.455 477.365 194.464 477.409 194.483 477.448C194.502 477.488 194.529 477.523 194.564 477.55C194.61 477.555 194.657 477.546 194.698 477.523ZM196.745 473.484H196.853C197.162 473.484 197.189 473.672 197.203 473.726C197.324 474.399 196.031 476.069 194.995 476.863C195.071 475.709 195.488 474.603 196.193 473.686C196.337 473.53 196.534 473.434 196.745 473.417V473.484Z" fill="#407BFF"/>
<path d="M258.144 477.873C259.007 477.953 259.872 477.734 260.594 477.254C260.76 477.11 260.889 476.929 260.968 476.725C261.048 476.521 261.077 476.3 261.052 476.082C261.045 475.951 261.004 475.824 260.933 475.713C260.862 475.602 260.764 475.511 260.648 475.449C259.423 474.763 255.357 476.796 254.899 477.065C254.853 477.085 254.815 477.12 254.791 477.164C254.766 477.207 254.757 477.258 254.764 477.308C254.769 477.357 254.791 477.404 254.825 477.44C254.859 477.477 254.904 477.501 254.953 477.51C256.003 477.732 257.071 477.853 258.144 477.873ZM259.975 475.786C260.127 475.779 260.279 475.807 260.419 475.867C260.464 475.893 260.502 475.93 260.528 475.975C260.554 476.02 260.567 476.071 260.567 476.123C260.588 476.264 260.572 476.408 260.523 476.542C260.474 476.676 260.392 476.796 260.285 476.89C259.652 477.456 257.996 477.536 255.761 477.173C257.076 476.473 258.501 476.004 259.975 475.786Z" fill="#407BFF"/>
<path d="M255.007 477.523H255.101C256.326 476.971 258.75 474.83 258.561 473.645C258.561 473.375 258.319 473.039 257.673 472.972C257.431 472.944 257.187 472.967 256.955 473.039C256.724 473.111 256.509 473.23 256.326 473.389C254.98 474.439 254.764 477.173 254.751 477.28C254.744 477.321 254.749 477.364 254.766 477.402C254.783 477.44 254.81 477.473 254.845 477.496C254.869 477.511 254.895 477.522 254.923 477.526C254.951 477.531 254.979 477.53 255.007 477.523ZM257.471 473.483H257.619C258.05 473.483 258.076 473.699 258.09 473.766C258.198 474.453 256.555 476.163 255.303 476.917C255.427 475.764 255.896 474.675 256.649 473.793C256.871 473.576 257.162 473.443 257.471 473.416V473.483Z" fill="#407BFF"/>
<path d="M214.855 212.135L224.482 211.395L219.473 222.045C219.473 222.045 211.031 222.422 209.617 215.972L214.855 212.135Z" fill="#E58A7B"/>
<path d="M232.305 216.242L227.256 225.667L219.42 222.045L224.482 211.395L232.305 216.242Z" fill="#E58A7B"/>
</svg>
